<svg width="16" height="16" viewBox="0 0 16 16" fill="none" xmlns="http://www.w3.org/2000/svg">
<path d="M10 4.66602C10 5.77058 10.8954 6.66602 12 6.66602C13.1046 6.66602 14 5.77058 14 4.66602C14 3.56145 13.1046 2.66602 12 2.66602C10.8954 2.66602 10 3.56145 10 4.66602ZM10 4.66602H2M6 11.3327C6 12.4373 5.10457 13.3327 4 13.3327C2.89543 13.3327 2 12.4373 2 11.3327C2 10.2281 2.89543 9.33268 4 9.33268C5.10457 9.33268 6 10.2281 6 11.3327ZM6 11.3327H14" stroke="#17181C" stroke-width="1.5" stroke-linecap="round" stroke-linejoin="round"/>
</svg>
